<mxfile host="app.diagrams.net" modified="2024-06-28T06:52:29.312Z" agent="Mozilla/5.0 (Windows NT 10.0; Win64; x64) AppleWebKit/537.36 (KHTML, like Gecko) Chrome/126.0.0.0 Safari/537.36 Edg/126.0.0.0" etag="J6ZX5cI77wjW9PpgPalJ" version="24.6.4" type="github">
  <diagram name="Page-1" id="JQ78qU2d38OFS9ukk69o">
    <mxGraphModel dx="1002" dy="535" grid="1" gridSize="10" guides="1" tooltips="1" connect="1" arrows="1" fold="1" page="1" pageScale="1" pageWidth="850" pageHeight="1100" math="0" shadow="0">
      <root>
        <mxCell id="0" />
        <mxCell id="1" parent="0" />
        <mxCell id="FIabmxnKkHCYrPWCEesK-2" value="" style="rounded=0;whiteSpace=wrap;html=1;" vertex="1" parent="1">
          <mxGeometry x="120" y="60" width="630" height="480" as="geometry" />
        </mxCell>
        <mxCell id="FIabmxnKkHCYrPWCEesK-3" value="" style="rounded=0;whiteSpace=wrap;html=1;" vertex="1" parent="1">
          <mxGeometry x="120" y="60" width="150" height="480" as="geometry" />
        </mxCell>
        <mxCell id="FIabmxnKkHCYrPWCEesK-4" value="Overall Dashboard" style="text;html=1;align=left;verticalAlign=middle;whiteSpace=wrap;rounded=0;labelBackgroundColor=#330000;fontColor=#FFFFFF;" vertex="1" parent="1">
          <mxGeometry x="120" y="130" width="150" height="30" as="geometry" />
        </mxCell>
        <mxCell id="FIabmxnKkHCYrPWCEesK-5" value="Assessment Status Dash." style="text;html=1;align=left;verticalAlign=middle;whiteSpace=wrap;rounded=0;" vertex="1" parent="1">
          <mxGeometry x="120" y="190" width="150" height="30" as="geometry" />
        </mxCell>
        <mxCell id="FIabmxnKkHCYrPWCEesK-6" style="edgeStyle=orthogonalEdgeStyle;rounded=0;orthogonalLoop=1;jettySize=auto;html=1;exitX=0.5;exitY=1;exitDx=0;exitDy=0;" edge="1" parent="1" source="FIabmxnKkHCYrPWCEesK-5" target="FIabmxnKkHCYrPWCEesK-5">
          <mxGeometry relative="1" as="geometry" />
        </mxCell>
        <mxCell id="FIabmxnKkHCYrPWCEesK-7" value="Assessment To be Started" style="text;html=1;align=left;verticalAlign=middle;whiteSpace=wrap;rounded=0;" vertex="1" parent="1">
          <mxGeometry x="140" y="220" width="130" height="30" as="geometry" />
        </mxCell>
        <mxCell id="FIabmxnKkHCYrPWCEesK-8" value="Assessment In Progress" style="text;html=1;align=left;verticalAlign=middle;whiteSpace=wrap;rounded=0;" vertex="1" parent="1">
          <mxGeometry x="140" y="250" width="130" height="30" as="geometry" />
        </mxCell>
        <mxCell id="FIabmxnKkHCYrPWCEesK-9" value="Assessment Completed" style="text;html=1;align=left;verticalAlign=middle;whiteSpace=wrap;rounded=0;" vertex="1" parent="1">
          <mxGeometry x="140" y="285" width="130" height="30" as="geometry" />
        </mxCell>
        <mxCell id="FIabmxnKkHCYrPWCEesK-10" value="Risk Analytics Dashboard" style="text;html=1;align=left;verticalAlign=middle;whiteSpace=wrap;rounded=0;" vertex="1" parent="1">
          <mxGeometry x="120" y="330" width="150" height="30" as="geometry" />
        </mxCell>
        <mxCell id="FIabmxnKkHCYrPWCEesK-11" value="Assessments (status graph, how many are started, progress, completed)(bar graph)&amp;nbsp;" style="rounded=0;whiteSpace=wrap;html=1;" vertex="1" parent="1">
          <mxGeometry x="305" y="140" width="115" height="120" as="geometry" />
        </mxCell>
        <mxCell id="FIabmxnKkHCYrPWCEesK-13" value="Risk overview (prob. line graph) (low risk, high risk,critical,etc.)" style="rounded=0;whiteSpace=wrap;html=1;" vertex="1" parent="1">
          <mxGeometry x="460" y="140" width="115" height="120" as="geometry" />
        </mxCell>
        <mxCell id="FIabmxnKkHCYrPWCEesK-16" style="edgeStyle=orthogonalEdgeStyle;rounded=0;orthogonalLoop=1;jettySize=auto;html=1;" edge="1" parent="1" source="FIabmxnKkHCYrPWCEesK-14" target="FIabmxnKkHCYrPWCEesK-11">
          <mxGeometry relative="1" as="geometry" />
        </mxCell>
        <mxCell id="FIabmxnKkHCYrPWCEesK-14" value="Year to date" style="text;html=1;align=center;verticalAlign=middle;whiteSpace=wrap;rounded=0;" vertex="1" parent="1">
          <mxGeometry x="327.5" y="100" width="70" height="30" as="geometry" />
        </mxCell>
        <mxCell id="FIabmxnKkHCYrPWCEesK-19" style="edgeStyle=orthogonalEdgeStyle;rounded=0;orthogonalLoop=1;jettySize=auto;html=1;entryX=0.5;entryY=0;entryDx=0;entryDy=0;" edge="1" parent="1" source="FIabmxnKkHCYrPWCEesK-17" target="FIabmxnKkHCYrPWCEesK-13">
          <mxGeometry relative="1" as="geometry" />
        </mxCell>
        <mxCell id="FIabmxnKkHCYrPWCEesK-17" value="Risk Line Graph" style="text;html=1;align=center;verticalAlign=middle;whiteSpace=wrap;rounded=0;" vertex="1" parent="1">
          <mxGeometry x="480" y="80" width="70" height="30" as="geometry" />
        </mxCell>
        <mxCell id="FIabmxnKkHCYrPWCEesK-20" value="Risk" style="rounded=0;whiteSpace=wrap;html=1;" vertex="1" parent="1">
          <mxGeometry x="610" y="140" width="115" height="120" as="geometry" />
        </mxCell>
        <mxCell id="FIabmxnKkHCYrPWCEesK-22" style="edgeStyle=orthogonalEdgeStyle;rounded=0;orthogonalLoop=1;jettySize=auto;html=1;" edge="1" parent="1" source="FIabmxnKkHCYrPWCEesK-21" target="FIabmxnKkHCYrPWCEesK-20">
          <mxGeometry relative="1" as="geometry" />
        </mxCell>
        <mxCell id="FIabmxnKkHCYrPWCEesK-21" value="Region Wise Summary" style="text;html=1;align=center;verticalAlign=middle;whiteSpace=wrap;rounded=0;" vertex="1" parent="1">
          <mxGeometry x="630" y="80" width="70" height="30" as="geometry" />
        </mxCell>
        <mxCell id="FIabmxnKkHCYrPWCEesK-23" value="Criticality of assessee graph, high,med,low,etc" style="rounded=0;whiteSpace=wrap;html=1;" vertex="1" parent="1">
          <mxGeometry x="305" y="340" width="115" height="120" as="geometry" />
        </mxCell>
        <mxCell id="FIabmxnKkHCYrPWCEesK-24" value="Re-assessment comparison (yearly analysis), along with vendor criticality (if possible)" style="rounded=0;whiteSpace=wrap;html=1;" vertex="1" parent="1">
          <mxGeometry x="460" y="340" width="115" height="120" as="geometry" />
        </mxCell>
        <mxCell id="FIabmxnKkHCYrPWCEesK-25" value="Overall Risk posture high,med,low (ytd)(pie chart)" style="rounded=0;whiteSpace=wrap;html=1;" vertex="1" parent="1">
          <mxGeometry x="610" y="340" width="115" height="120" as="geometry" />
        </mxCell>
      </root>
    </mxGraphModel>
  </diagram>
</mxfile>
